<svg
  xmlns="http://www.w3.org/2000/svg"
  width="43"
  height="16"
  fill="none"
  view-box="0 0 43 16"
>
  <path
    fill="#D0011B"
    fill-rule="evenodd"
    d="M0 2a2 2 0 012-2h39a2 2 0 012 2v12a2 2 0 01-2 2H2a2 2 0 01-2-2V2z"
    clip-rule="evenodd"
  ></path>
  <path
    fill="#fff"
    d="M8.64 12.107a4.12 4.12 0 01-1.68-.347A4.429 4.429 0 014.707 9.4a4.358 4.358 0 01-.334-1.693c0-.596.107-1.156.32-1.68.223-.534.525-1 .907-1.4.382-.4.831-.716 1.347-.947a4.12 4.12 0 011.68-.347 4.06 4.06 0 011.68.347 4.36 4.36 0 012.267 2.333c.222.525.333 1.09.333 1.694 0 .595-.111 1.16-.334 1.693-.213.533-.515 1-.906 1.4-.383.4-.831.72-1.347.96a4.06 4.06 0 01-1.68.347zm0-7.52c-.427 0-.827.084-1.2.253a3.194 3.194 0 00-.96.68 3.37 3.37 0 00-.64.987 2.98 2.98 0 00-.24 1.186c0 .427.076.831.227 1.214.16.373.377.706.653 1 .276.284.596.51.96.68.373.169.773.253 1.2.253.427 0 .822-.084 1.187-.253.364-.17.68-.396.946-.68.276-.294.49-.627.64-1 .16-.383.24-.787.24-1.214 0-.417-.08-.813-.24-1.186a3.164 3.164 0 00-.626-.987 2.988 2.988 0 00-.96-.68 2.788 2.788 0 00-1.187-.253zM15.736 12h-1.253V7.453h-.88V6.227h.88V6.08c0-.409.009-.76.026-1.053.027-.294.072-.53.134-.707.106-.32.28-.569.52-.747.249-.186.56-.28.933-.28.231 0 .453.031.667.094.213.053.382.129.506.226l-.4 1.04c-.195-.089-.36-.133-.493-.133-.32 0-.515.182-.587.547a4.616 4.616 0 00-.04.466 15.53 15.53 0 00-.013.694h1.52v1.226h-1.52V12zm4.014-7.28a.717.717 0 01-.227.547.753.753 0 01-.534.213.717.717 0 01-.546-.227.752.752 0 01-.213-.533c0-.204.075-.378.226-.52a.73.73 0 01.534-.227c.222 0 .404.076.546.227a.737.737 0 01.213.52zM19.63 12h-1.28V6.227h1.28V12zm4.068.107a2.923 2.923 0 01-2.693-1.787 3.068 3.068 0 01-.227-1.187c0-.453.08-.862.24-1.226.16-.365.373-.676.64-.934a2.97 2.97 0 01.96-.6 3.162 3.162 0 011.16-.213c.444 0 .849.093 1.213.28.374.178.703.422.987.733l-.693.907a2.89 2.89 0 00-.627-.453c-.231-.125-.529-.187-.893-.187-.507 0-.916.156-1.227.467-.311.302-.467.706-.467 1.213 0 .276.05.52.147.733.098.214.222.391.373.534.16.142.338.249.534.32.204.07.404.106.6.106.222 0 .417-.022.586-.066a3.73 3.73 0 00.454-.174 2.17 2.17 0 00.333-.213c.098-.071.182-.133.253-.187l.694.92a3.337 3.337 0 01-.853.653 3.46 3.46 0 01-.654.254 3.058 3.058 0 01-.84.107zm4.73-7.387a.718.718 0 01-.226.547.753.753 0 01-.533.213.717.717 0 01-.547-.227.753.753 0 01-.213-.533c0-.204.075-.378.227-.52a.73.73 0 01.533-.227c.222 0 .404.076.546.227a.737.737 0 01.214.52zm-.12 7.28h-1.28V6.227h1.28V12zm1.088-2.893c0-.445.072-.845.214-1.2.142-.365.338-.676.587-.934.248-.257.542-.457.88-.6.346-.142.72-.213 1.12-.213.373 0 .715.076 1.026.227.32.142.596.355.827.64v-.734h1.213v5.72H34.05V11.2a2.347 2.347 0 01-.827.653 2.44 2.44 0 01-1.026.214c-.4 0-.774-.071-1.12-.214a2.624 2.624 0 01-.88-.6 2.934 2.934 0 01-.587-.946 3.274 3.274 0 01-.213-1.2zm1.24.026c0 .276.045.525.134.747.089.222.209.409.36.56a1.807 1.807 0 001.2.453c.507 0 .911-.155 1.213-.466.311-.311.476-.751.493-1.32 0-.267-.04-.507-.12-.72a1.624 1.624 0 00-.346-.574 1.432 1.432 0 00-.547-.36 1.723 1.723 0 00-.693-.133 1.62 1.62 0 00-.653.133 1.76 1.76 0 00-.547.374c-.151.16-.271.35-.36.573a1.96 1.96 0 00-.133.733zM37.77 12h-1.267V3.467h1.267V12z"
  ></path>
</svg>
